<svg xmlns="http://www.w3.org/2000/svg" width="20" height="20" viewBox="0 0 20 20">
  <path id="Icon" d="M19.284,20a.729.729,0,0,1-.508-.211l-5.96-5.783a8.121,8.121,0,0,1-4.8,1.549A7.908,7.908,0,0,1,0,7.777,7.908,7.908,0,0,1,8.016,0a7.908,7.908,0,0,1,8.016,7.777,7.639,7.639,0,0,1-2.14,5.279l5.9,5.736A.71.71,0,0,1,19.284,20ZM8.016,1.407a6.477,6.477,0,0,0-6.565,6.37,6.477,6.477,0,0,0,6.565,6.37,6.626,6.626,0,0,0,4.643-1.865,6.234,6.234,0,0,0,1.922-4.5A6.477,6.477,0,0,0,8.016,1.407Z" fill="#8e919e" opacity="0.7"/>
</svg>
